<svg width="84" height="66" viewBox="0 0 84 66" fill="none" xmlns="http://www.w3.org/2000/svg">
<path d="M11.9999 0C8.68495 0 5.99995 2.685 5.99995 6V15V21H62.9999H77.9999V12C77.9999 8.685 75.3149 6 71.9999 6H33.5976L31.746 2.91211C30.663 1.10611 28.7105 0 26.6015 0H11.9999ZM4.50581 27C1.47881 27 -0.688834 29.9322 0.199166 32.8242L9.10542 61.7637C9.88242 64.2807 12.2077 66 14.8417 66H41.9999H69.1581C71.7921 66 74.1175 64.2807 74.8945 61.7637L83.8007 32.8242C84.6887 29.9322 82.5211 27 79.4941 27H41.9999H4.50581Z" fill="black"/>
</svg>
