<svg width="76" height="100" viewBox="0 0 76 100" fill="none" xmlns="http://www.w3.org/2000/svg">
<path d="M46.0813 0H13C9.68479 0 6.50537 1.31696 4.16116 3.66117C1.81696 6.00537 0.5 9.18479 0.5 12.5V87.5C0.5 90.8152 1.81696 93.9946 4.16116 96.3388C6.50537 98.683 9.68479 100 13 100H63C66.3152 100 69.4946 98.683 71.8388 96.3388C74.183 93.9946 75.5 90.8152 75.5 87.5V29.4187C75.4996 27.7613 74.8409 26.1718 73.6687 25L50.5 1.83125C49.3282 0.659067 47.7387 0.000353984 46.0813 0ZM47.375 21.875V9.375L66.125 28.125H53.625C51.9674 28.125 50.3777 27.4665 49.2056 26.2944C48.0335 25.1223 47.375 23.5326 47.375 21.875ZM25.5 43.0187C25.4999 42.4658 25.6465 41.9228 25.9248 41.445C26.2031 40.9673 26.6032 40.5719 27.0842 40.2993C27.5653 40.0267 28.11 39.8866 28.6629 39.8933C29.2158 39.9 29.757 40.0533 30.2312 40.3375L52.2812 53.5688C52.7447 53.8462 53.1283 54.2391 53.3947 54.709C53.6611 55.1789 53.8011 55.7098 53.8011 56.25C53.8011 56.7902 53.6611 57.3211 53.3947 57.791C53.1283 58.2609 52.7447 58.6538 52.2812 58.9312L30.2312 72.1625C29.7565 72.447 29.2147 72.6003 28.6613 72.6067C28.1079 72.6131 27.5627 72.4725 27.0815 72.1991C26.6003 71.9258 26.2003 71.5295 25.9224 71.0509C25.6446 70.5723 25.4988 70.0284 25.5 69.475V43.0187Z" fill="black"/>
</svg>
